<svg width="361" height="100" viewBox="0 0 361 100" fill="none" xmlns="http://www.w3.org/2000/svg">
<rect width="361" height="100" fill="white"/>
<path d="M38.6484 44.7083H44.6068V46.6667H40.0234C40.8012 47.8611 41.1901 49.1528 41.1901 50.5417C41.1901 52.4306 40.454 53.9861 38.9818 55.2083C37.5373 56.4306 35.6207 57.0417 33.2318 57.0417H32.5234C32.2179 57.6528 32.0651 58.2778 32.0651 58.9167C32.0651 58.9722 32.0929 59.3056 32.1484 59.9167L36.1484 60.5417C38.6762 60.9306 40.4818 61.5139 41.5651 62.2917C42.6762 63.0417 43.2318 64.1667 43.2318 65.6667C43.2318 67.4167 42.3984 68.9722 40.7318 70.3333C38.4818 72.1667 35.7318 73.0833 32.4818 73.0833C30.0929 73.0833 28.2318 72.5972 26.8984 71.625C25.5929 70.6806 24.9401 69.375 24.9401 67.7083C24.9401 66.375 25.329 65.2361 26.1068 64.2917C26.9123 63.375 28.0234 62.7917 29.4401 62.5417C29.1623 61.9028 29.0234 61.2778 29.0234 60.6667C29.0234 59.6111 29.6901 58.2917 31.0234 56.7083C29.4401 56.3472 28.1762 55.6111 27.2318 54.5C26.3151 53.3611 25.8568 52 25.8568 50.4167C25.8568 48.3889 26.5929 46.7361 28.0651 45.4583C29.5373 44.1806 31.4957 43.5417 33.9401 43.5417C35.5234 43.5417 37.0929 43.9306 38.6484 44.7083ZM36.4818 46.5833C35.7318 45.6389 34.7457 45.1667 33.5234 45.1667C32.3012 45.1667 31.3151 45.625 30.5651 46.5417C29.8151 47.4583 29.4401 48.7083 29.4401 50.2917C29.4401 51.8472 29.8151 53.0972 30.5651 54.0417C31.3151 54.9583 32.3012 55.4167 33.5234 55.4167C34.7457 55.4167 35.7318 54.9583 36.4818 54.0417C37.2318 53.0972 37.6068 51.8472 37.6068 50.2917C37.6068 48.7361 37.2318 47.5 36.4818 46.5833ZM31.8568 62.75C30.7179 63.1111 29.829 63.6528 29.1901 64.375C28.579 65.0972 28.2734 65.9167 28.2734 66.8333C28.2734 68.0556 28.8012 69.0833 29.8568 69.9167C30.9123 70.75 32.2734 71.1667 33.9401 71.1667C35.7457 71.1667 37.2318 70.7222 38.3984 69.8333C39.5651 68.9722 40.1484 67.9444 40.1484 66.75C40.1484 65.6944 39.8429 64.9583 39.2318 64.5417C38.6207 64.1528 37.5095 63.8056 35.8984 63.5L31.8568 62.75ZM46.3008 64V62.5L48.5091 62.2917L49.2591 61.625V46.5417H46.3008V45.25L51.1341 43.75H52.7174V47.6667C54.0508 46.2778 55.5369 44.9306 57.1758 43.625C57.398 43.5694 57.7452 43.5417 58.2174 43.5417C59.0508 43.5417 59.8841 43.7222 60.7174 44.0833V47.6667H59.3841C58.8286 47 58.1202 46.6667 57.2591 46.6667C55.9536 46.6667 54.4397 47.6806 52.7174 49.7083V61.625L53.4258 62.2917L56.3424 62.5V64H46.3008ZM79.6354 59.5833V61.875C77.1354 63.5417 74.5243 64.375 71.8021 64.375C69.0521 64.375 66.816 63.4306 65.0938 61.5417C63.3715 59.6528 62.5104 57.1806 62.5104 54.125C62.5104 50.9861 63.4132 48.4444 65.2188 46.5C67.0243 44.5278 69.3299 43.5417 72.1354 43.5417C74.4132 43.5417 76.2326 44.2778 77.5938 45.75C78.9549 47.1944 79.6354 49.1944 79.6354 51.75C79.6354 52.3056 79.6215 52.7361 79.5938 53.0417H66.0937V53.5C66.0937 56.1389 66.7187 58.2222 67.9688 59.75C69.2465 61.25 70.9549 62 73.0938 62C75.0382 62 77.2188 61.1944 79.6354 59.5833ZM75.9271 51.2917V50.625C75.9271 48.9306 75.5521 47.6389 74.8021 46.75C74.0521 45.8611 72.9826 45.4167 71.5938 45.4167C70.2326 45.4167 69.0382 45.9722 68.0104 47.0833C66.9826 48.1667 66.4132 49.5694 66.3021 51.2917H75.9271ZM100.094 59.5833V61.875C97.5944 63.5417 94.9833 64.375 92.2611 64.375C89.5111 64.375 87.275 63.4306 85.5527 61.5417C83.8305 59.6528 82.9694 57.1806 82.9694 54.125C82.9694 50.9861 83.8722 48.4444 85.6777 46.5C87.4833 44.5278 89.7888 43.5417 92.5944 43.5417C94.8722 43.5417 96.6916 44.2778 98.0527 45.75C99.4138 47.1944 100.094 49.1944 100.094 51.75C100.094 52.3056 100.081 52.7361 100.053 53.0417H86.5527V53.5C86.5527 56.1389 87.1777 58.2222 88.4277 59.75C89.7055 61.25 91.4138 62 93.5527 62C95.4972 62 97.6777 61.1944 100.094 59.5833ZM96.3861 51.2917V50.625C96.3861 48.9306 96.0111 47.6389 95.2611 46.75C94.5111 45.8611 93.4416 45.4167 92.0527 45.4167C90.6916 45.4167 89.4972 45.9722 88.4694 47.0833C87.4416 48.1667 86.8722 49.5694 86.7611 51.2917H96.3861ZM103.137 64V62.5L105.387 62.2917L106.095 61.625V46.5417H103.137V45.25L107.97 43.75H109.553V46.0417C112.581 44.375 114.817 43.5417 116.262 43.5417C118.095 43.5417 119.484 44.0833 120.428 45.1667C121.401 46.2222 121.887 47.7917 121.887 49.875V61.625L122.595 62.2917L124.845 62.5V64H115.72V62.5L117.72 62.2917L118.428 61.625V50.5833C118.428 49.0556 118.109 47.9583 117.47 47.2917C116.831 46.625 115.748 46.2917 114.22 46.2917C112.887 46.2917 111.331 46.75 109.553 47.6667V61.625L110.262 62.2917L112.262 62.5V64H103.137ZM156.965 61.5833C154.327 63.3889 152.049 64.2917 150.132 64.2917C148.493 64.2917 147.188 63.8056 146.215 62.8333C145.271 61.8333 144.799 60.5417 144.799 58.9583C144.799 56.9306 145.66 55.4444 147.382 54.5C149.132 53.5278 152.327 52.4861 156.965 51.375V50.0417C156.965 48.3472 156.688 47.1528 156.132 46.4583C155.604 45.7361 154.604 45.375 153.132 45.375C152.104 45.375 151.049 45.5972 149.965 46.0417V49.5417H147.09C146.618 49.5417 146.285 49.4583 146.09 49.2917C145.896 49.0972 145.799 48.75 145.799 48.25C145.799 46.9444 146.563 45.8333 148.09 44.9167C149.618 44 151.66 43.5417 154.215 43.5417C156.41 43.5417 157.993 44.0139 158.965 44.9583C159.938 45.9028 160.424 47.4306 160.424 49.5417V61.625L161.174 62.2917L163.382 62.5V64H157.507L156.965 61.5833ZM156.965 60.1667V52.8333C153.771 53.7222 151.549 54.5556 150.299 55.3333C149.077 56.0833 148.465 57.1806 148.465 58.625C148.465 59.6528 148.757 60.4861 149.34 61.125C149.952 61.7361 150.771 62.0417 151.799 62.0417C153.077 62.0417 154.799 61.4167 156.965 60.1667ZM165.358 64V62.5L167.816 62.2917L168.525 61.625V36.125H165.316V34.8333L170.4 33.3333H171.983V61.625L172.733 62.2917L175.108 62.5V64H165.358ZM179.626 46.4583H177.001V45.1667L179.751 43.9583L181.542 40.0833H183.084V44.5H189.417V46.4583H183.084V57.4583C183.084 59.125 183.306 60.3056 183.751 61C184.223 61.6667 185.153 62 186.542 62C187.431 62 188.39 61.8889 189.417 61.6667V63.2083C187.501 63.8194 185.681 64.125 183.959 64.125C182.292 64.125 181.153 63.8056 180.542 63.1667C179.931 62.5278 179.626 61.4444 179.626 59.9167V46.4583ZM208.542 59.5833V61.875C206.042 63.5417 203.431 64.375 200.708 64.375C197.958 64.375 195.722 63.4306 194 61.5417C192.278 59.6528 191.417 57.1806 191.417 54.125C191.417 50.9861 192.319 48.4444 194.125 46.5C195.931 44.5278 198.236 43.5417 201.042 43.5417C203.319 43.5417 205.139 44.2778 206.5 45.75C207.861 47.1944 208.542 49.1944 208.542 51.75C208.542 52.3056 208.528 52.7361 208.5 53.0417H195V53.5C195 56.1389 195.625 58.2222 196.875 59.75C198.153 61.25 199.861 62 202 62C203.944 62 206.125 61.1944 208.542 59.5833ZM204.833 51.2917V50.625C204.833 48.9306 204.458 47.6389 203.708 46.75C202.958 45.8611 201.889 45.4167 200.5 45.4167C199.139 45.4167 197.944 45.9722 196.917 47.0833C195.889 48.1667 195.319 49.5694 195.208 51.2917H204.833ZM211.584 64V62.5L213.792 62.2917L214.542 61.625V46.5417H211.584V45.25L216.417 43.75H218.001V47.6667C219.334 46.2778 220.82 44.9306 222.459 43.625C222.681 43.5694 223.028 43.5417 223.501 43.5417C224.334 43.5417 225.167 43.7222 226.001 44.0833V47.6667H224.667C224.112 47 223.403 46.6667 222.542 46.6667C221.237 46.6667 219.723 47.6806 218.001 49.7083V61.625L218.709 62.2917L221.626 62.5V64H211.584ZM227.502 64V62.5L229.752 62.2917L230.46 61.625V46.5417H227.502V45.25L232.335 43.75H233.919V46.0417C236.946 44.375 239.183 43.5417 240.627 43.5417C242.46 43.5417 243.849 44.0833 244.794 45.1667C245.766 46.2222 246.252 47.7917 246.252 49.875V61.625L246.96 62.2917L249.21 62.5V64H240.085V62.5L242.085 62.2917L242.794 61.625V50.5833C242.794 49.0556 242.474 47.9583 241.835 47.2917C241.196 46.625 240.113 46.2917 238.585 46.2917C237.252 46.2917 235.696 46.75 233.919 47.6667V61.625L234.627 62.2917L236.627 62.5V64H227.502ZM263.85 61.5833C261.211 63.3889 258.934 64.2917 257.017 64.2917C255.378 64.2917 254.072 63.8056 253.1 62.8333C252.156 61.8333 251.684 60.5417 251.684 58.9583C251.684 56.9306 252.545 55.4444 254.267 54.5C256.017 53.5278 259.211 52.4861 263.85 51.375V50.0417C263.85 48.3472 263.572 47.1528 263.017 46.4583C262.489 45.7361 261.489 45.375 260.017 45.375C258.989 45.375 257.934 45.5972 256.85 46.0417V49.5417H253.975C253.503 49.5417 253.17 49.4583 252.975 49.2917C252.781 49.0972 252.684 48.75 252.684 48.25C252.684 46.9444 253.447 45.8333 254.975 44.9167C256.503 44 258.545 43.5417 261.1 43.5417C263.295 43.5417 264.878 44.0139 265.85 44.9583C266.822 45.9028 267.309 47.4306 267.309 49.5417V61.625L268.059 62.2917L270.267 62.5V64H264.392L263.85 61.5833ZM263.85 60.1667V52.8333C260.656 53.7222 258.434 54.5556 257.184 55.3333C255.961 56.0833 255.35 57.1806 255.35 58.625C255.35 59.6528 255.642 60.4861 256.225 61.125C256.836 61.7361 257.656 62.0417 258.684 62.0417C259.961 62.0417 261.684 61.4167 263.85 60.1667ZM274.743 46.4583H272.118V45.1667L274.868 43.9583L276.66 40.0833H278.201V44.5H284.535V46.4583H278.201V57.4583C278.201 59.125 278.423 60.3056 278.868 61C279.34 61.6667 280.271 62 281.66 62C282.548 62 283.507 61.8889 284.535 61.6667V63.2083C282.618 63.8194 280.798 64.125 279.076 64.125C277.41 64.125 276.271 63.8056 275.66 63.1667C275.048 62.5278 274.743 61.4444 274.743 59.9167V46.4583ZM289.701 35.2083C290.173 34.7361 290.742 34.5 291.409 34.5C292.076 34.5 292.645 34.7361 293.117 35.2083C293.589 35.6806 293.826 36.25 293.826 36.9167C293.826 37.5833 293.589 38.1528 293.117 38.625C292.645 39.0694 292.076 39.2917 291.409 39.2917C290.742 39.2917 290.173 39.0694 289.701 38.625C289.228 38.1528 288.992 37.5833 288.992 36.9167C288.992 36.2222 289.228 35.6528 289.701 35.2083ZM291.242 43.75H292.826V61.625L293.576 62.2917L295.826 62.5V64H286.451V62.5L288.659 62.2917L289.367 61.625V46.5417H286.451V45.25L291.242 43.75ZM296.454 43.9583H305.495V45.5L303.287 45.6667L302.787 46.3333L307.662 59.9583L312.995 46.3333L312.662 45.6667L310.412 45.5V43.9583H317.787V45.5L315.329 45.8333L308.037 64H305.704L298.995 45.75L296.454 45.5V43.9583ZM335.934 59.5833V61.875C333.434 63.5417 330.823 64.375 328.101 64.375C325.351 64.375 323.115 63.4306 321.393 61.5417C319.67 59.6528 318.809 57.1806 318.809 54.125C318.809 50.9861 319.712 48.4444 321.518 46.5C323.323 44.5278 325.629 43.5417 328.434 43.5417C330.712 43.5417 332.531 44.2778 333.893 45.75C335.254 47.1944 335.934 49.1944 335.934 51.75C335.934 52.3056 335.92 52.7361 335.893 53.0417H322.393V53.5C322.393 56.1389 323.018 58.2222 324.268 59.75C325.545 61.25 327.254 62 329.393 62C331.337 62 333.518 61.1944 335.934 59.5833ZM332.226 51.2917V50.625C332.226 48.9306 331.851 47.6389 331.101 46.75C330.351 45.8611 329.281 45.4167 327.893 45.4167C326.531 45.4167 325.337 45.9722 324.309 47.0833C323.281 48.1667 322.712 49.5694 322.601 51.2917H332.226Z" fill="#7EAB69"/>
<path d="M55 30C55 26.0603 58.2462 22.1593 64.5531 18.5195C70.8601 14.8797 80.1043 11.5726 91.7581 8.7868C103.412 6.00104 117.247 3.79125 132.473 2.28361C147.7 0.775973 164.019 -1.72208e-07 180.5 0C196.981 1.72208e-07 213.3 0.775973 228.527 2.28361C243.753 3.79126 257.588 6.00104 269.242 8.7868C280.896 11.5726 290.14 14.8797 296.447 18.5195C302.754 22.1593 306 26.0603 306 30L278.931 30C278.931 26.9101 276.385 23.8504 271.439 20.9957C266.492 18.141 259.242 15.5471 250.101 13.3622C240.961 11.1773 230.11 9.44412 218.168 8.26166C206.226 7.0792 193.426 6.47059 180.5 6.47059C167.574 6.47059 154.774 7.07919 142.832 8.26166C130.89 9.44412 120.039 11.1773 110.899 13.3622C101.758 15.5471 94.5079 18.141 89.5613 20.9957C84.6146 23.8504 82.0686 26.9101 82.0686 30L55 30Z" fill="#D9D9D9"/>
<path d="M306 70C306 73.9397 302.754 77.8407 296.447 81.4805C290.14 85.1203 280.896 88.4274 269.242 91.2132C257.588 93.999 243.753 96.2087 228.527 97.7164C213.3 99.224 196.981 100 180.5 100C164.019 100 147.7 99.224 132.473 97.7164C117.247 96.2087 103.412 93.999 91.7581 91.2132C80.1043 88.4274 70.8601 85.1203 64.5531 81.4805C58.2462 77.8407 55 73.9397 55 70L82.0686 70C82.0686 73.0899 84.6146 76.1496 89.5613 79.0043C94.5079 81.859 101.758 84.4529 110.899 86.6378C120.039 88.8227 130.89 90.5559 142.832 91.7383C154.774 92.9208 167.574 93.5294 180.5 93.5294C193.426 93.5294 206.226 92.9208 218.168 91.7383C230.11 90.5559 240.961 88.8227 250.101 86.6378C259.242 84.4529 266.492 81.859 271.439 79.0043C276.385 76.1496 278.931 73.0899 278.931 70H306Z" fill="#D9D9D9"/>
</svg>
